<?xml version="1.0" standalone="no"?>
<!DOCTYPE svg PUBLIC "-//W3C//DTD SVG 20010904//EN"
 "http://www.w3.org/TR/2001/REC-SVG-20010904/DTD/svg10.dtd">
<svg version="1.0" xmlns="http://www.w3.org/2000/svg"
 width="682.000000pt" height="682.000000pt" viewBox="0 0 682.000000 682.000000"
 preserveAspectRatio="xMidYMid meet">
<metadata>
Created by potrace 1.14, written by Peter Selinger 2001-2017
</metadata>
<g transform="translate(0.000000,682.000000) scale(0.100000,-0.100000)"
fill="#000000" stroke="none">
<path d="M976 6629 c-147 -22 -315 -87 -432 -167 -81 -55 -203 -183 -256 -267
-54 -86 -99 -188 -124 -280 -18 -68 -19 -151 -19 -2445 0 -2285 1 -2378 19
-2455 73 -313 313 -590 602 -694 46 -17 129 -40 183 -51 98 -20 131 -20 2433
-20 1936 0 2347 2 2418 14 92 15 216 54 295 93 250 125 445 376 512 659 17 76
18 179 18 2439 0 2260 -1 2363 -18 2439 -24 100 -77 228 -129 308 -55 85 -186
214 -279 275 -92 60 -218 115 -319 139 -71 17 -200 18 -2460 20 -1312 1 -2412
-2 -2444 -7z m1736 -1244 c100 -17 263 -72 362 -122 348 -174 588 -485 672
-868 25 -118 24 -349 -4 -477 -77 -364 -351 -708 -664 -834 -44 -17 -81 -34
-84 -36 -5 -6 108 -175 237 -355 105 -144 122 -169 419 -593 118 -168 244
-345 280 -395 37 -49 72 -100 79 -112 19 -36 13 -70 -15 -92 -26 -20 -38 -21
-364 -21 -333 0 -337 0 -371 23 -18 12 -81 90 -141 177 -115 165 -246 351
-363 515 -39 55 -161 228 -270 385 -109 157 -215 309 -237 338 l-39 52 -119 0
c-112 0 -120 -1 -134 -22 -14 -20 -16 -105 -16 -721 l0 -698 -25 -24 -24 -25
-291 0 -292 0 -29 29 -29 29 0 1902 c0 1326 3 1907 11 1921 6 11 20 24 32 29
12 5 317 9 678 9 536 1 672 -2 741 -14z m2775 -8 c12 -12 20 -41 25 -95 12
-133 9 -3705 -3 -3740 -21 -61 -29 -62 -343 -62 l-284 0 -31 26 -31 26 0 701
c0 638 -1 702 -17 719 -15 17 -39 18 -352 18 -185 0 -481 3 -659 7 l-323 6 38
30 c80 64 221 216 277 300 32 48 76 129 97 180 22 50 47 108 57 127 l17 35
419 3 c289 1 423 6 433 13 11 9 13 161 13 844 l0 833 31 27 32 26 293 -3 c264
-3 295 -5 311 -21z"/>
<path d="M1965 4746 c-20 -14 -20 -27 -22 -553 -2 -421 0 -543 10 -563 l13
-25 344 0 c335 0 347 1 412 23 277 96 432 387 363 681 -45 189 -205 356 -405
423 -60 20 -89 22 -380 26 -266 3 -318 1 -335 -12z"/>
</g>
</svg>
